# Blender 4.3.0
# www.blender.org
mtllib cacti6.mtl
o SeguaroCactusSmall_LOD0
v 0.007045 0.007826 0.000188
v 0.007045 0.007826 -0.111100
v 0.007045 0.142799 -0.119651
v 0.078580 0.007826 -0.085064
v 0.084076 0.142799 -0.091614
v 0.116642 0.007826 -0.019137
v 0.125063 0.142799 -0.020622
v 0.103423 0.007826 0.055832
v 0.110828 0.142799 0.060107
v 0.045108 0.007826 0.104764
v 0.048032 0.142799 0.112799
v -0.031017 0.007826 0.104764
v -0.033942 0.142799 0.112799
v -0.089333 0.007826 0.055832
v -0.096738 0.142799 0.060107
v -0.102552 0.007826 -0.019137
v -0.110973 0.142799 -0.020622
v -0.064489 0.007826 -0.085064
v -0.069985 0.142799 -0.091614
v -0.132177 -0.261292 -0.072459
v -0.098399 -0.261292 -0.066503
v -0.120446 -0.261292 -0.092777
v -0.160182 -0.212197 0.055204
v -0.107012 -0.212197 0.024507
v -0.167475 -0.212197 0.013845
v -0.091906 -0.237195 0.208064
v -0.085403 -0.237195 0.190196
v -0.101870 -0.237195 0.199703
v 0.048021 -0.144546 0.134646
v 0.023693 -0.144546 0.067806
v -0.000635 -0.144546 0.134646
v 0.102682 -0.286079 0.096083
v 0.068054 -0.286079 0.076090
v 0.081729 -0.286079 0.113664
v 0.307695 -0.219822 0.012460
v 0.272382 -0.219822 0.018686
v 0.303435 -0.219822 0.036614
v 0.142758 -0.348649 -0.081074
v 0.126118 -0.348649 -0.061243
v 0.151612 -0.348649 -0.065738
v 0.105356 -0.216755 -0.166791
v 0.086688 -0.216755 -0.144543
v 0.086688 -0.216755 -0.173586
v 0.000041 -0.195177 -0.109829
v 0.000041 -0.195177 -0.170205
v -0.038767 -0.195177 -0.156080
v 0.007045 0.195733 -0.121389
v -0.071103 0.195733 -0.092946
v -0.112685 0.195733 -0.020924
v -0.098244 0.195733 0.060976
v -0.034537 0.195733 0.114433
v 0.048627 0.195733 0.114433
v 0.112334 0.195733 0.060976
v 0.126776 0.195733 -0.020924
v 0.085194 0.195733 -0.092946
v 0.007045 0.264065 -0.100071
v -0.057400 0.264065 -0.076615
v -0.091691 0.264065 -0.017222
v -0.079782 0.264065 0.050317
v -0.027245 0.264065 0.094400
v 0.041336 0.264065 0.094400
v 0.093872 0.264065 0.050317
v 0.105781 0.264065 -0.017222
v 0.071491 0.264065 -0.076615
v 0.007045 0.294345 -0.041754
v -0.019914 0.294345 -0.031942
v -0.034259 0.294345 -0.007095
v -0.029277 0.294345 0.021159
v -0.007300 0.294345 0.039600
v 0.021390 0.294345 0.039600
v 0.043368 0.294345 0.021159
v 0.048350 0.294345 -0.007095
v 0.034005 0.294345 -0.031942
vn 0.3194 0.3575 -0.8776
vn 0.6425 -0.0309 0.7657
vn 0.3414 -0.0594 -0.9380
vn 0.8564 0.1486 -0.4944
vn -0.6425 -0.0309 0.7657
vn -0.6425 -0.0308 0.7657
vn 0.8645 -0.0594 -0.4991
vn 0.7501 0.6479 0.1323
vn -0.8656 -0.0308 -0.4998
vn 0.9831 -0.0594 0.1733
vn 0.6394 0.1027 0.7620
vn 0.8656 -0.0309 -0.4998
vn 0.6417 -0.0594 0.7647
vn -0.0000 0.1924 0.9813
vn 0.9843 -0.0309 0.1736
vn -0.0000 -0.0594 0.9982
vn -0.5789 0.4347 0.6899
vn -0.0000 -0.0309 0.9995
vn -0.6417 -0.0594 0.7647
vn -0.9389 0.3019 0.1655
vn -0.9843 -0.0308 0.1736
vn -0.9831 -0.0594 0.1733
vn -0.8501 0.1908 -0.4908
vn -0.3419 -0.0309 -0.9392
vn -0.8645 -0.0594 -0.4991
vn -0.3289 0.2744 -0.9036
vn -0.3414 -0.0594 -0.9380
vn -0.0000 -1.0000 -0.0000
vn 0.7586 -0.1395 -0.6365
vn -0.1710 -0.1733 0.9699
vn 0.1703 -0.1950 -0.9659
vn 0.4934 -0.1613 0.8547
vn -0.4502 -0.4349 -0.7798
vn 0.9360 -0.0890 0.3407
vn -0.9107 -0.2466 -0.3315
vn 0.9386 -0.0490 -0.3416
vn -0.9344 -0.1061 0.3401
vn 0.4964 -0.1190 -0.8599
vn -0.4450 -0.4560 0.7707
vn -0.1671 -0.2718 -0.9477
vn 0.1726 -0.1110 0.9787
vn -0.7581 -0.1436 -0.6361
vn -0.9425 -0.3342 -0.0000
vn 0.7584 -0.1412 0.6364
vn -0.7292 -0.3064 0.6119
vn 0.9994 -0.0345 -0.0000
vn 0.9450 0.2813 0.1666
vn 0.3419 -0.0309 -0.9392
vn 0.1654 0.8753 -0.4545
vn -0.6168 0.2813 0.7351
vn -0.3282 0.2813 -0.9017
vn 0.8310 0.2813 -0.4798
vn -0.0000 0.2813 0.9596
vn -0.8310 0.2813 -0.4798
vn 0.3282 0.2813 -0.9017
vn 0.6168 0.2813 0.7351
vn -0.9450 0.2813 0.1666
vn -0.0000 1.0000 -0.0000
vn 0.3109 0.8753 0.3705
vn -0.4763 0.8753 0.0840
vn 0.4763 0.8753 0.0840
vn -0.3109 0.8753 0.3705
vn -0.1654 0.8753 -0.4545
vn 0.4188 0.8753 -0.2418
vn -0.0000 0.8753 0.4836
vn -0.4188 0.8753 -0.2418
vn -0.3419 -0.0308 -0.9392
vt 0.000000 0.000000
vt 1.000000 0.000000
vt 1.000000 1.000000
s 1
usemtl Cactus.006
f 4/1/1 43/2/1 2/3/1
f 9/1/2 52/2/2 11/3/2
f 3/1/3 4/2/3 2/3/3
f 6/1/4 38/2/4 4/3/4
f 13/1/5 50/2/6 15/3/6
f 5/1/7 6/2/7 4/3/7
f 6/1/8 37/2/8 35/3/8
f 49/1/9 19/2/9 17/3/9
f 6/1/10 9/2/10 8/3/10
f 10/1/11 32/2/11 8/3/11
f 55/1/12 7/2/12 5/3/12
f 8/1/13 11/2/13 10/3/13
f 10/1/14 31/2/14 29/3/14
f 7/1/15 53/2/15 9/3/15
f 11/1/16 12/2/16 10/3/16
f 12/1/17 28/2/17 26/3/17
f 11/1/18 51/2/18 13/3/18
f 12/1/19 15/2/19 14/3/19
f 14/1/20 25/2/20 23/3/20
f 15/1/21 49/2/21 17/3/21
f 15/1/22 16/2/22 14/3/22
f 18/1/23 20/2/23 16/3/23
f 48/1/24 3/2/24 19/3/24
f 17/1/25 18/2/25 16/3/25
f 2/1/26 46/2/26 18/3/26
f 19/1/27 2/2/27 18/3/27
f 21/1/28 20/2/28 22/3/28
f 18/1/29 21/2/29 22/3/29
f 16/1/30 21/2/30 1/3/30
f 24/1/28 23/2/28 25/3/28
f 16/1/31 24/2/31 25/3/31
f 14/1/32 24/2/32 1/3/32
f 27/1/28 26/2/28 28/3/28
f 14/1/33 27/2/33 28/3/33
f 12/1/34 27/2/34 1/3/34
f 30/1/28 29/2/28 31/3/28
f 12/1/35 30/2/35 31/3/35
f 10/1/36 30/2/36 1/3/36
f 33/1/28 32/2/28 34/3/28
f 10/1/37 33/2/37 34/3/37
f 8/1/38 33/2/38 1/3/38
f 36/1/28 35/2/28 37/3/28
f 8/1/39 36/2/39 37/3/39
f 6/1/40 36/2/40 1/3/40
f 39/1/28 38/2/28 40/3/28
f 6/1/41 39/2/41 40/3/41
f 4/1/42 39/2/42 1/3/42
f 42/1/28 43/2/28 41/3/28
f 2/1/43 42/2/43 1/3/43
f 4/1/44 42/2/44 41/3/44
f 44/1/28 46/2/28 45/3/28
f 18/1/45 44/2/45 1/3/45
f 2/1/46 44/2/46 45/3/46
f 53/1/47 63/2/47 62/3/47
f 47/1/48 5/2/48 3/3/48
f 64/1/49 65/2/49 73/3/49
f 50/1/50 60/2/50 59/3/50
f 47/1/51 57/2/51 56/3/51
f 55/1/52 63/2/52 54/3/52
f 52/1/53 60/2/53 51/3/53
f 49/1/54 57/2/54 48/3/54
f 47/1/55 64/2/55 55/3/55
f 52/1/56 62/2/56 61/3/56
f 49/1/57 59/2/57 58/3/57
f 65/1/58 67/2/58 69/3/58
f 62/1/59 70/2/59 61/3/59
f 58/1/60 68/2/60 67/3/60
f 63/1/61 71/2/61 62/3/61
f 60/1/62 68/2/62 59/3/62
f 56/1/63 66/2/63 65/3/63
f 63/1/64 73/2/64 72/3/64
f 61/1/65 69/2/65 60/3/65
f 58/1/66 66/2/66 57/3/66
f 4/1/1 41/2/1 43/3/1
f 9/1/2 53/2/2 52/3/2
f 3/1/3 5/2/3 4/3/3
f 6/1/4 40/2/4 38/3/4
f 13/1/5 51/2/5 50/3/6
f 5/1/7 7/2/7 6/3/7
f 6/1/8 8/2/8 37/3/8
f 49/1/9 48/2/9 19/3/9
f 6/1/10 7/2/10 9/3/10
f 10/1/11 34/2/11 32/3/11
f 55/1/12 54/2/12 7/3/12
f 8/1/13 9/2/13 11/3/13
f 10/1/14 12/2/14 31/3/14
f 7/1/15 54/2/15 53/3/15
f 11/1/16 13/2/16 12/3/16
f 12/1/17 14/2/17 28/3/17
f 11/1/18 52/2/18 51/3/18
f 12/1/19 13/2/19 15/3/19
f 14/1/20 16/2/20 25/3/20
f 15/1/21 50/2/21 49/3/21
f 15/1/22 17/2/22 16/3/22
f 18/1/23 22/2/23 20/3/23
f 48/1/24 47/2/67 3/3/24
f 17/1/25 19/2/25 18/3/25
f 2/1/26 45/2/26 46/3/26
f 19/1/27 3/2/27 2/3/27
f 18/1/29 1/2/29 21/3/29
f 16/1/30 20/2/30 21/3/30
f 16/1/31 1/2/31 24/3/31
f 14/1/32 23/2/32 24/3/32
f 14/1/33 1/2/33 27/3/33
f 12/1/34 26/2/34 27/3/34
f 12/1/35 1/2/35 30/3/35
f 10/1/36 29/2/36 30/3/36
f 10/1/37 1/2/37 33/3/37
f 8/1/38 32/2/38 33/3/38
f 8/1/39 1/2/39 36/3/39
f 6/1/40 35/2/40 36/3/40
f 6/1/41 1/2/41 39/3/41
f 4/1/42 38/2/42 39/3/42
f 2/1/43 43/2/43 42/3/43
f 4/1/44 1/2/44 42/3/44
f 18/1/45 46/2/45 44/3/45
f 2/1/46 1/2/46 44/3/46
f 53/1/47 54/2/47 63/3/47
f 47/1/48 55/2/48 5/3/48
f 64/1/49 56/2/49 65/3/49
f 50/1/50 51/2/50 60/3/50
f 47/1/51 48/2/51 57/3/51
f 55/1/52 64/2/52 63/3/52
f 52/1/53 61/2/53 60/3/53
f 49/1/54 58/2/54 57/3/54
f 47/1/55 56/2/55 64/3/55
f 52/1/56 53/2/56 62/3/56
f 49/1/57 50/2/57 59/3/57
f 72/1/58 73/2/58 65/3/58
f 65/1/58 66/2/58 67/3/58
f 67/1/58 68/2/58 69/3/58
f 69/1/58 70/2/58 65/3/58
f 70/1/58 71/2/58 65/3/58
f 71/1/58 72/2/58 65/3/58
f 62/1/59 71/2/59 70/3/59
f 58/1/60 59/2/60 68/3/60
f 63/1/61 72/2/61 71/3/61
f 60/1/62 69/2/62 68/3/62
f 56/1/63 57/2/63 66/3/63
f 63/1/64 64/2/64 73/3/64
f 61/1/65 70/2/65 69/3/65
f 58/1/66 67/2/66 66/3/66
