# Blender 4.3.0
# www.blender.org
mtllib cacti5.mtl
o SeguaroCactusMedium2_LOD0
v 0.002210 -0.004821 0.000059
v 0.002210 -0.004821 -0.206985
v 0.002210 0.173305 -0.222894
v 0.135296 -0.004821 -0.158546
v 0.145521 0.173305 -0.170733
v 0.206109 -0.004821 -0.035894
v 0.221776 0.173305 -0.038656
v 0.181516 -0.004821 0.103581
v 0.195293 0.173305 0.111535
v 0.073023 -0.004821 0.194617
v 0.078464 0.173305 0.209566
v -0.068603 -0.004821 0.194617
v -0.074044 0.173305 0.209566
v -0.177095 -0.004821 0.103581
v -0.190872 0.173305 0.111535
v -0.201689 -0.004821 -0.035894
v -0.217355 0.173305 -0.038656
v -0.130875 -0.004821 -0.158546
v -0.141101 0.173305 -0.170733
v 0.002210 0.951199 -0.274264
v 0.002210 0.406582 -0.246306
v 0.160570 0.406582 -0.188667
v 0.244832 0.406582 -0.042722
v 0.215568 0.406582 0.123241
v 0.086472 0.406582 0.231566
v -0.082051 0.406582 0.231566
v -0.211148 0.406582 0.123241
v -0.240411 0.406582 -0.042722
v -0.156150 0.406582 -0.188667
v 0.178541 0.951199 -0.210084
v 0.272365 0.951199 -0.047577
v 0.239781 0.951199 0.137220
v 0.096034 0.951199 0.257838
v -0.091614 0.951199 0.257838
v -0.235360 0.951199 0.137220
v -0.267945 0.951199 -0.047577
v -0.174121 0.951199 -0.210084
v 0.002210 1.569962 -0.266238
v 0.173383 1.569962 -0.203937
v 0.264462 1.569962 -0.046183
v 0.232830 1.569962 0.133207
v 0.093289 1.569962 0.250296
v -0.088869 1.569962 0.250296
v -0.228410 1.569962 0.133207
v -0.260041 1.569962 -0.046183
v -0.168962 1.569962 -0.203937
v 0.002210 1.968127 -0.259051
v 0.168763 1.968127 -0.198431
v 0.257384 1.968127 -0.044935
v 0.226606 1.968127 0.129614
v 0.090831 1.968127 0.243543
v -0.086411 1.968127 0.243543
v -0.222186 1.968127 0.129614
v -0.252963 1.968127 -0.044935
v -0.164342 1.968127 -0.198431
v -0.256804 -0.359983 -0.135096
v -0.193963 -0.359983 -0.124016
v -0.234980 -0.359983 -0.172897
v -0.308907 -0.295191 0.102414
v -0.209987 -0.295191 0.045303
v -0.322475 -0.295191 0.025468
v -0.181883 -0.328183 0.386800
v -0.169784 -0.328183 0.353559
v -0.200420 -0.328183 0.371246
v 0.078444 -0.205911 0.250211
v 0.033183 -0.205911 0.125858
v -0.012078 -0.205911 0.250211
v 0.180137 -0.392696 0.178466
v 0.115713 -0.392696 0.141271
v 0.141156 -0.392696 0.211175
v 0.561550 -0.305255 0.022890
v 0.495854 -0.305255 0.034474
v 0.553626 -0.305255 0.067829
v 0.254696 -0.475270 -0.151124
v 0.223738 -0.475270 -0.114230
v 0.271168 -0.475270 -0.122593
v 0.185112 -0.301207 -0.310595
v 0.150380 -0.301207 -0.269204
v 0.150380 -0.301207 -0.323237
v -0.010820 -0.272730 -0.204622
v -0.010820 -0.272730 -0.316946
v -0.083021 -0.272730 -0.290667
v 0.002210 2.446188 -0.226128
v -0.143180 2.446188 -0.173211
v -0.220541 2.446188 -0.039218
v -0.193674 2.446188 0.113152
v -0.075150 2.446188 0.212605
v 0.079571 2.446188 0.212605
v 0.198094 2.446188 0.113152
v 0.224961 2.446188 -0.039218
v 0.147601 2.446188 -0.173211
v 0.002210 2.536367 -0.186467
v -0.117686 2.536367 -0.142828
v -0.181482 2.536367 -0.032331
v -0.159326 2.536367 0.093322
v -0.061585 2.536367 0.175336
v 0.066006 2.536367 0.175336
v 0.163747 2.536367 0.093322
v 0.185903 2.536367 -0.032331
v 0.122107 2.536367 -0.142828
v 0.002210 2.576329 -0.077971
v -0.047947 2.576329 -0.059716
v -0.074634 2.576329 -0.013491
v -0.065366 2.576329 0.039074
v -0.024478 2.576329 0.073383
v 0.028898 2.576329 0.073383
v 0.069787 2.576329 0.039074
v 0.079055 2.576329 -0.013491
v 0.052367 2.576329 -0.059716
vn 0.3010 0.4748 -0.8270
vn 0.9805 -0.0940 0.1729
vn 0.9805 -0.0939 0.1729
vn 0.9814 -0.0837 0.1730
vn 0.3408 -0.0837 -0.9364
vn 0.3408 -0.0836 -0.9364
vn 0.8472 0.2073 -0.4891
vn -0.0000 -0.0940 0.9956
vn -0.0000 -0.0939 0.9956
vn -0.0000 -0.0837 0.9965
vn 0.8630 -0.0837 -0.4982
vn 0.8630 -0.0836 -0.4982
vn 0.6307 0.7680 0.1112
vn -0.9814 -0.0837 0.1730
vn -0.9805 -0.0939 0.1729
vn 0.9814 -0.0836 0.1730
vn 0.6361 0.1441 0.7581
vn 0.3405 -0.0939 -0.9355
vn 0.6405 -0.0836 0.7634
vn 0.6405 -0.0837 0.7634
vn -0.0000 0.2665 0.9638
vn 0.8622 -0.0939 -0.4978
vn -0.0000 -0.0836 0.9965
vn -0.5314 0.5626 0.6333
vn 0.6399 -0.0940 0.7627
vn 0.6399 -0.0939 0.7627
vn -0.6405 -0.0836 0.7634
vn -0.6405 -0.0837 0.7634
vn -0.8993 0.4076 0.1586
vn -0.6399 -0.0939 0.7627
vn -0.9814 -0.0836 0.1730
vn -0.8352 0.2643 -0.4822
vn -0.8622 -0.0940 -0.4978
vn -0.8622 -0.0939 -0.4978
vn -0.8630 -0.0837 -0.4982
vn -0.8630 -0.0836 -0.4982
vn -0.3173 0.3732 -0.8718
vn -0.3408 -0.0837 -0.9364
vn -0.3405 -0.0939 -0.9355
vn -0.3408 -0.0836 -0.9364
vn -0.6420 -0.0482 0.7652
vn 0.6420 -0.0482 0.7652
vn 0.8650 -0.0482 -0.4994
vn -0.9837 -0.0482 0.1734
vn -0.3416 -0.0482 -0.9386
vn -0.0000 -0.0482 0.9988
vn 0.9837 -0.0482 0.1734
vn 0.6427 0.0122 0.7660
vn 0.3416 -0.0482 -0.9386
vn -0.8650 -0.0482 -0.4994
vn 0.9847 0.0146 0.1736
vn 0.9847 0.0170 0.1736
vn 0.8660 0.0122 -0.5000
vn 0.8659 0.0146 -0.4999
vn -0.9847 0.0122 0.1736
vn -0.3420 0.0122 -0.9396
vn -0.3420 0.0146 -0.9396
vn -0.0000 0.0122 0.9999
vn 0.9847 0.0122 0.1736
vn -0.8660 0.0122 -0.5000
vn -0.8659 0.0146 -0.4999
vn 0.3420 0.0122 -0.9396
vn 0.3420 0.0146 -0.9396
vn -0.6427 0.0122 0.7660
vn -0.6414 0.0646 0.7644
vn -0.6427 0.0169 0.7659
vn -0.6427 0.0170 0.7659
vn -0.3420 0.0170 -0.9396
vn 0.8659 0.0170 -0.4999
vn -0.0000 0.0169 0.9999
vn -0.0000 0.0170 0.9999
vn -0.8659 0.0170 -0.4999
vn 0.3420 0.0170 -0.9396
vn 0.6427 0.0169 0.7659
vn 0.6427 0.0170 0.7659
vn -0.9847 0.0169 0.1736
vn -0.9847 0.0170 0.1736
vn -0.0000 -1.0000 -0.0000
vn 0.7514 -0.1948 -0.6305
vn -0.1685 -0.2408 0.9558
vn 0.1672 -0.2699 -0.9482
vn 0.4872 -0.2246 0.8439
vn -0.4133 -0.5628 -0.7159
vn 0.9323 -0.1249 0.3393
vn -0.8845 -0.3376 -0.3219
vn 0.9374 -0.0691 -0.3412
vn -0.9292 -0.1488 0.3382
vn 0.4930 -0.1666 -0.8539
vn -0.4053 -0.5856 0.7020
vn -0.1613 -0.3699 -0.9150
vn 0.1715 -0.1556 0.9728
vn -0.7505 -0.2004 -0.6297
vn -0.8945 -0.4472 -0.0000
vn 0.7510 -0.1971 0.6302
vn -0.6976 -0.4133 0.5853
vn 0.9988 -0.0486 -0.0000
vn 0.9101 0.3819 0.1605
vn -0.3413 0.0646 -0.9377
vn 0.8642 0.0646 -0.4990
vn -0.0000 0.0646 0.9979
vn -0.8642 0.0646 -0.4990
vn 0.3413 0.0646 -0.9377
vn 0.6414 0.0646 0.7644
vn -0.9828 0.0646 0.1733
vn 0.9828 0.0646 0.1733
vn 0.1248 0.9310 -0.3429
vn -0.5941 0.3819 0.7080
vn -0.3161 0.3819 -0.8684
vn 0.8004 0.3819 -0.4621
vn -0.0000 0.3819 0.9242
vn -0.8004 0.3819 -0.4621
vn 0.3161 0.3819 -0.8684
vn 0.5941 0.3819 0.7080
vn -0.9101 0.3819 0.1605
vn -0.0000 1.0000 -0.0000
vn 0.2346 0.9310 0.2796
vn -0.3594 0.9310 0.0634
vn 0.3594 0.9310 0.0634
vn -0.2346 0.9310 0.2796
vn -0.1248 0.9310 -0.3429
vn 0.3160 0.9310 -0.1825
vn -0.0000 0.9310 0.3649
vn -0.3160 0.9310 -0.1825
vn -0.6405 -0.0838 0.7634
vt 0.000000 0.000000
vt 1.000000 0.000000
vt 1.000000 1.000000
s 1
usemtl Cactus.005
f 4/1/1 79/2/1 2/3/1
f 7/1/2 24/2/3 9/3/4
f 3/1/5 4/2/6 2/3/6
f 6/1/7 74/2/7 4/3/7
f 11/1/8 26/2/9 13/3/10
f 5/1/11 6/2/12 4/3/12
f 6/1/13 73/2/13 71/3/13
f 15/1/14 28/2/15 17/3/14
f 6/1/16 9/2/4 8/3/16
f 10/1/17 68/2/17 8/3/17
f 3/1/5 22/2/18 5/3/5
f 8/1/19 11/2/20 10/3/19
f 10/1/21 67/2/21 65/3/21
f 5/1/11 23/2/22 7/3/11
f 10/1/23 13/2/10 12/3/23
f 12/1/24 64/2/24 62/3/24
f 9/1/25 25/2/26 11/3/20
f 12/1/27 15/2/28 14/3/27
f 14/1/29 61/2/29 59/3/29
f 15/1/28 26/2/30 27/3/30
f 15/1/14 16/2/31 14/3/31
f 18/1/32 56/2/32 16/3/32
f 19/1/33 28/2/34 29/3/34
f 17/1/35 18/2/36 16/3/36
f 2/1/37 82/2/37 18/3/37
f 19/1/38 21/2/39 3/3/38
f 19/1/38 2/2/40 18/3/40
f 26/1/41 35/2/41 27/3/41
f 24/1/42 33/2/42 25/3/42
f 23/1/43 30/2/43 31/3/43
f 27/1/44 36/2/44 28/3/44
f 21/1/45 37/2/45 20/3/45
f 25/1/46 34/2/46 26/3/46
f 23/1/47 32/2/47 24/3/47
f 32/1/48 42/2/48 33/3/48
f 22/1/49 20/2/49 30/3/49
f 29/1/50 36/2/50 37/3/50
f 41/1/51 49/2/52 50/3/52
f 31/1/53 39/2/54 40/3/54
f 35/1/55 45/2/55 36/3/55
f 20/1/56 46/2/57 38/3/57
f 33/1/58 43/2/58 34/3/58
f 31/1/59 41/2/51 32/3/59
f 37/1/60 45/2/61 46/3/61
f 30/1/62 38/2/63 39/3/63
f 34/1/64 44/2/64 35/3/64
f 52/1/65 86/2/65 53/3/65
f 43/1/66 53/2/67 44/3/64
f 46/1/57 47/2/68 38/3/57
f 39/1/54 49/2/69 40/3/54
f 42/1/70 52/2/71 43/3/58
f 45/1/61 55/2/72 46/3/61
f 38/1/63 48/2/73 39/3/63
f 41/1/74 51/2/75 42/3/48
f 44/1/76 54/2/77 45/3/55
f 57/1/78 56/2/78 58/3/78
f 18/1/79 57/2/79 58/3/79
f 16/1/80 57/2/80 1/3/80
f 60/1/78 59/2/78 61/3/78
f 16/1/81 60/2/81 61/3/81
f 14/1/82 60/2/82 1/3/82
f 63/1/78 62/2/78 64/3/78
f 14/1/83 63/2/83 64/3/83
f 12/1/84 63/2/84 1/3/84
f 66/1/78 65/2/78 67/3/78
f 12/1/85 66/2/85 67/3/85
f 10/1/86 66/2/86 1/3/86
f 69/1/78 68/2/78 70/3/78
f 10/1/87 69/2/87 70/3/87
f 8/1/88 69/2/88 1/3/88
f 72/1/78 71/2/78 73/3/78
f 8/1/89 72/2/89 73/3/89
f 6/1/90 72/2/90 1/3/90
f 75/1/78 74/2/78 76/3/78
f 6/1/91 75/2/91 76/3/91
f 4/1/92 75/2/92 1/3/92
f 78/1/78 79/2/78 77/3/78
f 2/1/93 78/2/93 1/3/93
f 4/1/94 78/2/94 77/3/94
f 80/1/78 82/2/78 81/3/78
f 18/1/95 80/2/95 1/3/95
f 2/1/96 80/2/96 81/3/96
f 90/1/97 98/2/97 89/3/97
f 55/1/98 83/2/98 47/3/98
f 48/1/99 90/2/99 49/3/99
f 51/1/100 87/2/100 52/3/100
f 54/1/101 84/2/101 55/3/101
f 47/1/102 91/2/102 48/3/102
f 50/1/103 88/2/103 51/3/103
f 54/1/104 86/2/104 85/3/104
f 49/1/105 89/2/105 50/3/105
f 100/1/106 101/2/106 109/3/106
f 86/1/107 96/2/107 95/3/107
f 83/1/108 93/2/108 92/3/108
f 91/1/109 99/2/109 90/3/109
f 88/1/110 96/2/110 87/3/110
f 85/1/111 93/2/111 84/3/111
f 83/1/112 100/2/112 91/3/112
f 88/1/113 98/2/113 97/3/113
f 85/1/114 95/2/114 94/3/114
f 108/1/115 101/2/115 105/3/115
f 98/1/116 106/2/116 97/3/116
f 94/1/117 104/2/117 103/3/117
f 99/1/118 107/2/118 98/3/118
f 96/1/119 104/2/119 95/3/119
f 92/1/120 102/2/120 101/3/120
f 99/1/121 109/2/121 108/3/121
f 97/1/122 105/2/122 96/3/122
f 94/1/123 102/2/123 93/3/123
f 4/1/1 77/2/1 79/3/1
f 7/1/2 23/2/3 24/3/3
f 3/1/5 5/2/5 4/3/6
f 6/1/7 76/2/7 74/3/7
f 11/1/8 25/2/9 26/3/9
f 5/1/11 7/2/11 6/3/12
f 6/1/13 8/2/13 73/3/13
f 15/1/14 27/2/15 28/3/15
f 6/1/16 7/2/2 9/3/4
f 10/1/17 70/2/17 68/3/17
f 3/1/5 21/2/18 22/3/18
f 8/1/19 9/2/25 11/3/20
f 10/1/21 12/2/21 67/3/21
f 5/1/11 22/2/22 23/3/22
f 10/1/23 11/2/8 13/3/10
f 12/1/24 14/2/24 64/3/24
f 9/1/25 24/2/26 25/3/26
f 12/1/27 13/2/124 15/3/28
f 14/1/29 16/2/29 61/3/29
f 15/1/28 13/2/124 26/3/30
f 15/1/14 17/2/14 16/3/31
f 18/1/32 58/2/32 56/3/32
f 19/1/33 17/2/35 28/3/34
f 17/1/35 19/2/33 18/3/36
f 2/1/37 81/2/37 82/3/37
f 19/1/38 29/2/39 21/3/39
f 19/1/38 3/2/38 2/3/40
f 26/1/41 34/2/41 35/3/41
f 24/1/42 32/2/42 33/3/42
f 23/1/43 22/2/43 30/3/43
f 27/1/44 35/2/44 36/3/44
f 21/1/45 29/2/45 37/3/45
f 25/1/46 33/2/46 34/3/46
f 23/1/47 31/2/47 32/3/47
f 32/1/48 41/2/74 42/3/48
f 22/1/49 21/2/49 20/3/49
f 29/1/50 28/2/50 36/3/50
f 41/1/51 40/2/51 49/3/52
f 31/1/53 30/2/53 39/3/54
f 35/1/55 44/2/76 45/3/55
f 20/1/56 37/2/56 46/3/57
f 33/1/58 42/2/70 43/3/58
f 31/1/59 40/2/51 41/3/51
f 37/1/60 36/2/60 45/3/61
f 30/1/62 20/2/62 38/3/63
f 34/1/64 43/2/66 44/3/64
f 52/1/65 87/2/65 86/3/65
f 43/1/66 52/2/67 53/3/67
f 46/1/57 55/2/68 47/3/68
f 39/1/54 48/2/69 49/3/69
f 42/1/70 51/2/71 52/3/71
f 45/1/61 54/2/72 55/3/72
f 38/1/63 47/2/73 48/3/73
f 41/1/74 50/2/75 51/3/75
f 44/1/76 53/2/77 54/3/77
f 18/1/79 1/2/79 57/3/79
f 16/1/80 56/2/80 57/3/80
f 16/1/81 1/2/81 60/3/81
f 14/1/82 59/2/82 60/3/82
f 14/1/83 1/2/83 63/3/83
f 12/1/84 62/2/84 63/3/84
f 12/1/85 1/2/85 66/3/85
f 10/1/86 65/2/86 66/3/86
f 10/1/87 1/2/87 69/3/87
f 8/1/88 68/2/88 69/3/88
f 8/1/89 1/2/89 72/3/89
f 6/1/90 71/2/90 72/3/90
f 6/1/91 1/2/91 75/3/91
f 4/1/92 74/2/92 75/3/92
f 2/1/93 79/2/93 78/3/93
f 4/1/94 1/2/94 78/3/94
f 18/1/95 82/2/95 80/3/95
f 2/1/96 1/2/96 80/3/96
f 90/1/97 99/2/97 98/3/97
f 55/1/98 84/2/98 83/3/98
f 48/1/99 91/2/99 90/3/99
f 51/1/100 88/2/100 87/3/100
f 54/1/101 85/2/101 84/3/101
f 47/1/102 83/2/102 91/3/102
f 50/1/103 89/2/103 88/3/103
f 54/1/104 53/2/104 86/3/104
f 49/1/105 90/2/105 89/3/105
f 100/1/106 92/2/106 101/3/106
f 86/1/107 87/2/107 96/3/107
f 83/1/108 84/2/108 93/3/108
f 91/1/109 100/2/109 99/3/109
f 88/1/110 97/2/110 96/3/110
f 85/1/111 94/2/111 93/3/111
f 83/1/112 92/2/112 100/3/112
f 88/1/113 89/2/113 98/3/113
f 85/1/114 86/2/114 95/3/114
f 108/1/115 109/2/115 101/3/115
f 101/1/115 102/2/115 103/3/115
f 103/1/115 104/2/115 101/3/115
f 104/1/115 105/2/115 101/3/115
f 105/1/115 106/2/115 107/3/115
f 107/1/115 108/2/115 105/3/115
f 98/1/116 107/2/116 106/3/116
f 94/1/117 95/2/117 104/3/117
f 99/1/118 108/2/118 107/3/118
f 96/1/119 105/2/119 104/3/119
f 92/1/120 93/2/120 102/3/120
f 99/1/121 100/2/121 109/3/121
f 97/1/122 106/2/122 105/3/122
f 94/1/123 103/2/123 102/3/123
